<svg version="1.0" xmlns="http://www.w3.org/2000/svg" width="682.667" height="682.667" viewBox="0 0 512 512"><path d="M253.7.7c-.9.2-4.8 5.7-8.6 12.1-10.4 17.7-24.8 42.7-30.3 52.4-2.7 4.7-5.4 9-6.1 9.6-.8.6-12.5-5.6-38.2-20.4C150.2 42.6 133 33 132.3 33c-2.2 0-6.2 2.2-6.9 3.9-.4.9-.9 17.9-1 37.8-.1 20-.4 37-.8 37.8-.3.9-1 1.4-1.4 1.1-.5-.3-4.5-.8-8.8-1.1-4.3-.3-9.9-.8-12.4-1-2.5-.2-8.1-.7-12.5-1-4.4-.3-9.6-.8-11.5-1-1.9-.2-7.8-.7-13-1.1-5.2-.4-10.6-.8-12-.9-4.3-.3-8 2.4-8.7 6.5-.4 2.2 2.1 7.8 19.7 44.5 3.4 7.1 7.5 15.8 9 19.2l2.9 6.2-6.7 2.5c-3.7 1.4-19.2 7.2-34.5 13-15.3 5.7-28.7 11.2-29.8 12.2-1.9 1.7-2.6 6.9-1.1 8.9.4.6 5.7 5.1 11.7 10 6.1 5 11.9 9.7 13 10.7 1.1.9 8.8 7.2 17.1 14s15.3 12.6 15.5 13c.2.4-7.7 9.1-17.6 19.3C7.9 323.3 7.9 323.3 8.3 326c1 6.6-.5 6 40.2 16 16 3.9 30.7 7.5 32.7 8.1l3.7.9-11.5 33.8c-6.3 18.5-11.7 35-11.9 36.7-.6 3.8 2.1 7.5 5.9 7.9 1.6.2 6.9-.5 12-1.6 5-1 10.2-2.1 11.6-2.3 1.4-.3 13.3-2.7 26.5-5.4 13.2-2.6 24.1-4.7 24.3-4.6.1.1.5 2.9.8 6.1.2 3.2.6 6.6.9 7.4.2.8.6 3.7.9 6.5 1.6 14.2 3.5 29.9 4.1 33.5.2 1.4.7 5.2 1 8.5.3 3.3.8 6.9 1 8 .2 1.1.4 2.5.4 3.1.2 2.2 4.3 5.4 7 5.4 2.9 0 2 .6 39.5-27.3l23.9-17.8 11 16.8c6 9.2 15.2 23.2 20.3 31 7.9 12 9.7 14.2 12.4 14.8 2.1.5 3.8.2 5.4-.8 1.3-.9 6-8.3 10.4-16.4 4.5-8.2 9.5-17.4 11.2-20.4 1.6-3 5.7-10.5 9-16.7 3.4-6.1 6.4-11.2 6.6-11.2.3 0 14.3 8.7 31.2 19.3 16.9 10.7 31.5 19.6 32.5 20 1 .4 3.3 0 5.2-.7 4.5-1.9 4.3.2 6.1-46.1.5-14.3 1.1-27.7 1.3-31.3.1-1.3 4.7-1.2 14.1.3 1.4.2 4.8.6 7.5 1 2.8.3 6.6.8 8.5 1 3.5.5 15.9 1.9 26 3.1 3 .3 7.8 1 10.5 1.4 9.1 1.4 12.9.1 14-5 .6-2.6-2.1-9.7-15-39.5-.7-1.7-1.9-4.6-2.8-6.5-.8-1.9-2.1-5.1-3-7-5.1-11.7-7.7-18.3-7.4-18.6.2-.2 16.1-5.6 35.3-12 19.2-6.3 35.7-12.3 36.6-13.1 1.1-.9 1.8-3 1.8-5 0-3.7-.7-4.5-12.5-14.8-3.7-3.3-7.3-6.5-7.9-7-.6-.6-6.7-6-13.6-12-6.9-6-14.1-12.5-16.1-14.3-2-1.8-4.4-3.9-5.3-4.5-1.5-1.1-.6-2.3 7.2-9.7 4.8-4.7 17.2-16.6 27.5-26.4 15.4-14.7 18.7-18.4 18.7-20.6 0-5.3-2.6-6.9-18.5-11.5-8.3-2.4-18.1-5.3-22-6.4-3.8-1.2-13.1-3.8-20.5-5.9-12.8-3.6-13.5-4-13.2-6.3.1-1.3.6-3.3 1.1-4.4.6-1.1 4.6-11.7 9.1-23.5 4.4-11.8 8.4-22.4 8.9-23.5 2.8-6.3 6.1-15.8 6.1-17.6 0-1.1-1.2-3.2-2.6-4.6-2.3-2.3-3.1-2.5-7.7-2-2.9.4-6.3.8-7.7 1.1-1.4.3-4.3.7-6.5 1.1-3.8.5-18.6 2.9-25 4-3.8.6-7.9 1.3-13 2.1-2.2.3-7.3 1.2-11.2 1.9-7.1 1.2-7.3 1.2-7.4-.9-.1-1.2-.3-3-.4-4.1-.1-1.1-.6-6.1-1-11-.4-5-.8-10.6-1-12.5-.1-1.9-.6-7.8-.9-13-.4-5.2-.9-11.3-1.1-13.5-.2-2.2-.7-7.2-1-11-.7-7.8-2.2-11-5.9-11.9-3.5-.9-5.5.1-20.1 10.3C318.7 54.1 301 66 300.3 66c-.7 0-10.2-15.8-20.4-33.9C262 .5 260.7-1.1 253.7.7z"/></svg>